<svg xmlns="http://www.w3.org/2000/svg" width="149.436" height="68.267" viewBox="0 0 149.436 68.267">
  <g id="Group_3018" data-name="Group 3018" transform="translate(0.001 -0.002)">
    <g id="Group_1" data-name="Group 1">
      <path id="Path_4255" data-name="Path 4255" d="M13.587,41.028c-.045.532.1,1.054.1,1.589a2.006,2.006,0,0,0,.177.81c.071.155,0,.3.09.453a.791.791,0,0,1,.129.433c0,.069.075.142.069.21-.007.127.17.241.022.372.226.094.178.327.252.5s.144.346.221.517.151.372.246.547q.2.366.427.715c.229.353.467.7.708,1.044.2.285.4.568.613.841.286.369.594.719.877,1.093a3.99,3.99,0,0,0,1.108,1.018c.285.174.535.4.809.6.425.3.786.675,1.233.943a4.5,4.5,0,0,1,.493.377,5.346,5.346,0,0,0,.489.395,1.093,1.093,0,0,0,.4.113c.106.016.219-.011.324,0,.23.037.34-.163.511-.241.031-.015.046-.09.05-.138a.762.762,0,0,0-.24-.711,2.985,2.985,0,0,0-.591-.524,3.648,3.648,0,0,1-.644-.5c-.255-.249-.6-.334-.866-.564-.079-.068-.172-.12-.245-.192-.511-.5-1.036-.992-1.518-1.522a6.836,6.836,0,0,1-1.291-1.775c-.21-.472-.538-.879-.727-1.361a9.671,9.671,0,0,1-.629-1.728A1.964,1.964,0,0,0,16,43.808c-.1-.184,0-.385-.132-.558-.076-.094-.02-.263-.076-.41a2.457,2.457,0,0,1-.094-.772c-.011-.553-.015-1.108,0-1.661a6.492,6.492,0,0,1,.087-1.141c.112-.543.246-1.084.38-1.621a17.173,17.173,0,0,1,.645-1.925c.129-.343.319-.652.449-.991a4.493,4.493,0,0,1,.314-.64,5.853,5.853,0,0,1,.4-.6c.231-.312.475-.618.72-.919.185-.225.374-.445.575-.653a13.413,13.413,0,0,1,1.352-1.133c.265-.21.553-.391.81-.613a2.9,2.9,0,0,1,.844-.407c.048-.019.114,0,.148-.03a3.245,3.245,0,0,1,.784-.368c.274-.123.557-.226.836-.334.151-.059.312-.1.459-.165.364-.155.756-.2,1.125-.325.106-.035.2-.136.3-.152.27-.045.545-.06.818-.087l.08-.082H27.4l.082-.08c.174,0,.385.06.517-.015.189-.106.364-.044.542-.063a2.538,2.538,0,0,0,.521-.014,3.314,3.314,0,0,1,1.021-.068,4.742,4.742,0,0,1,1.05.01,7.49,7.49,0,0,0,1.142.068c.01.022.018.045.027.067l.054-.067a2.691,2.691,0,0,0,.325.078,2.259,2.259,0,0,0,.319,0,.441.441,0,0,1,.325.08c.08.072.159.029.253.014a1.229,1.229,0,0,1,.4.069H34.3c.027.027.054.053.08.08a4.006,4.006,0,0,1,.931.014,7.1,7.1,0,0,0,1.389.064c.287.016.562-.133.858-.078.272-.206.633-.158.931-.355a.827.827,0,0,1-.1.678,7.267,7.267,0,0,0-.329.713,1.311,1.311,0,0,1-.347.545c-.1.1-.189.187-.161.34.016.09-.049.09-.116.116a.22.22,0,0,0-.112.184c.042.245-.293.227-.3.444,0,.042-.214-.053-.218.138,0,.054-.182.034-.158.167-.393.059-.607.448-1,.527-.189.038-.321.242-.532.275a5.717,5.717,0,0,1-1.383.283l-.08.082H33l-.079.08h-.813l-.082-.08a2.635,2.635,0,0,1-.648-.01,6.023,6.023,0,0,0-1.39-.069c-.472-.012-.949-.012-1.423,0a3.253,3.253,0,0,0-.792.142c-.184.053-.38.046-.57.082-.414.076-.83.162-1.231.278a6.2,6.2,0,0,0-1.089.5,9.084,9.084,0,0,0-.848.5c-.139.091-.274.248-.489.2-.057-.014-.138.056-.2.1a1.834,1.834,0,0,0-.417.349c-.106.151-.267.226-.378.361a2.13,2.13,0,0,1-.361.414,2.649,2.649,0,0,0-.607.8.624.624,0,0,0-.127.355.406.406,0,0,1-.082.246,5.347,5.347,0,0,0-.653,1.352c-.118.289-.222.587-.359.863a1.8,1.8,0,0,0-.1.5c-.049.223-.084.449-.154.668.146.223-.071.427-.034.653a7.085,7.085,0,0,0,.02.726,8.042,8.042,0,0,1,.075.982,5.361,5.361,0,0,0,.248.991,10.433,10.433,0,0,0,.519,1.163c.079.155.124.353.329.432.039.016.031.143.063.211.05.114.113.223.17.335.231-.064.025.306.246.249.063.108.087.253.255.252a1.3,1.3,0,0,0,.572.568.982.982,0,0,0,.671.236.19.19,0,0,1,.212.08.2.2,0,0,0,.208.083c.067,0,.165-.027.2.007.226.229.535.158.8.237a8.086,8.086,0,0,0,2.246.161l.082-.082c.263.01.5-.121.753-.132.483-.02.877-.334,1.355-.364a.558.558,0,0,0,.32-.189c.334-.357.775-.6,1.1-.948a10.043,10.043,0,0,0,1.2-1.557c.383-.622.709-1.27,1.033-1.92a6.37,6.37,0,0,0,.415-1.2,2.582,2.582,0,0,0,.159-.742c.12-.008.069-.1.08-.163a10.408,10.408,0,0,1,.091-1.054,5.254,5.254,0,0,1,.278-.813,5.178,5.178,0,0,1,.233-.629c.093-.181,0-.407.2-.572a1.164,1.164,0,0,0,.25-.494c.057-.151.2-.271.17-.455.255-.127.3-.41.447-.617A6.973,6.973,0,0,1,36.2,34.322a4.511,4.511,0,0,1,.852-.577,3.5,3.5,0,0,0,.437-.309,2.054,2.054,0,0,1,.954-.43c.192,0,.191,0,.257.215.005.015.045.019.067.029a1.517,1.517,0,0,1-.039.47,1.382,1.382,0,0,0-.038.468,2.1,2.1,0,0,1-.011.483,3.5,3.5,0,0,0-.075.942,3.349,3.349,0,0,1-.082.413c-.03.138.071.3-.068.418-.014.012-.01.049-.011.075-.029.3-.039.6-.084.9-.069.455-.161.907-.241,1.359,0,.012,0,.031-.008.037-.123.08-.059.214-.091.3a1.827,1.827,0,0,0-.067.338c-.059.312-.146.618-.192.931-.053.354-.162.694-.226,1.047-.059.328-.067.662-.133.991s-.214.619-.282.941a9.219,9.219,0,0,1-.3.928.432.432,0,0,1-.068.172.311.311,0,0,0-.1.248,2.248,2.248,0,0,1-.271.86,1.1,1.1,0,0,0-.129.389.88.88,0,0,1-.248.629,1.965,1.965,0,0,1-.245.709,5.883,5.883,0,0,1-.474,1.141,1.7,1.7,0,0,0-.157.5c-.108.349-.279.67-.4,1.013a9.045,9.045,0,0,1-.523,1.161c-.123.246-.29.468-.391.731a11.362,11.362,0,0,0-.46,1.269,8.241,8.241,0,0,1-.649,1.472,10.013,10.013,0,0,1-.58.976,3.052,3.052,0,0,0-.169.255,9.4,9.4,0,0,1-.743,1.315,2.741,2.741,0,0,0-.251.543c-.052.128-.2.191-.233.3a1.215,1.215,0,0,1-.172.377,3.374,3.374,0,0,0-.206.361c-.068.12-.132.244-.206.361s-.212.223-.229.347c-.019.14-.161.063-.18.166a2.523,2.523,0,0,1-.2.4,3.643,3.643,0,0,1-.546,1.024c-.278.329-.472.7-.713,1.048-.261.074-.271.343-.4.515a4.612,4.612,0,0,0-.4.564c-.054.1-.083.178-.206.2-.045.005-.113.071-.112.108.011.261-.218.35-.351.5-.407.47-.829.926-1.229,1.4-.131.154-.208.346-.34.509A7.7,7.7,0,0,1,23.985,67.1c-.233.184-.46.374-.709.543a3.11,3.11,0,0,1-1.935.625c-.133-.007-.27,0-.4,0-.135-.143-.313-.253-.321-.479,0-.022-.048-.052-.042-.06.136-.231.012-.5.106-.727a1.62,1.62,0,0,0,.054-.383c.023-.11.063-.219.078-.331s-.007-.218.007-.324a2.24,2.24,0,0,1,.076-.291V64.5a1.246,1.246,0,0,0-.071-.538c-.071-.159.061-.372-.09-.53a2.42,2.42,0,0,0-.166-.905,7.524,7.524,0,0,0-.279-.9c-.157-.381-.364-.741-.527-1.119a4.284,4.284,0,0,0-.649-.948c-.346-.43-.692-.862-1.078-1.261-.123-.127-.231-.282-.353-.418s-.219-.294-.347-.421c-.189-.184-.4-.34-.594-.521s-.408-.278-.591-.436a11.545,11.545,0,0,0-1.22-.879,3.2,3.2,0,0,0-.3-.167,2.852,2.852,0,0,1-.862-.655,3.48,3.48,0,0,0-.822-.75c-.025-.012-.038-.038-.06-.056-.822-.715-1.577-1.5-2.347-2.265-.054-.053-.079-.133-.131-.188a2.158,2.158,0,0,0-.31-.3,1.4,1.4,0,0,1-.531-.561,5.875,5.875,0,0,0-.606-.924c-.259-.381-.53-.756-.8-1.127a10.807,10.807,0,0,1-.58-.938c-.207-.35-.449-.675-.655-1.024a5.963,5.963,0,0,1-.577-1.18.868.868,0,0,0-.084-.208,8.689,8.689,0,0,1-.625-1.525,1.475,1.475,0,0,1-.023-.314,2.2,2.2,0,0,0-.08-.291c-.022-.072-.05-.142-.072-.212-.1-.323-.218-.641-.31-.965s-.15-.663-.255-.99c-.049-.151-.039-.325-.086-.491-.06-.208-.01-.466-.112-.641-.116-.2,0-.4-.125-.6-.093-.146-.02-.37-.08-.569a3.374,3.374,0,0,1-.091-.894,7.5,7.5,0,0,1-.093-.859,2.893,2.893,0,0,0-.008-.888,4.414,4.414,0,0,1-.067-.821c-.012-.316.114-.617.087-.939a3.448,3.448,0,0,1,.008-.969c.06-.3.018-.609.079-.9.053-.249.025-.5.08-.737s.022-.5.08-.737a10.14,10.14,0,0,1,.3-1.375A3.6,3.6,0,0,0,4.961,29c.117-.545.272-1.08.4-1.62a8.573,8.573,0,0,0,.2-.978,5.16,5.16,0,0,1,.332-1.318c.317-.8.583-1.621.933-2.411a10.822,10.822,0,0,1,.44-1.032c.17-.294.325-.595.474-.9.274-.562.512-1.144.821-1.685.554-.971.99-2,1.54-2.971.293-.515.6-1.025.877-1.545.257-.478.55-.933.826-1.4a1.59,1.59,0,0,1,.26-.376,5.324,5.324,0,0,0,.591-.856,9.8,9.8,0,0,0,.5-.884,3.96,3.96,0,0,0,.523-1.244.814.814,0,0,1,.2-.362c.256-.276.362-.652.645-.918a.669.669,0,0,0,.211-.513c.214-.044.187-.276.309-.393.078-.075-.084-.236.1-.3.144-.048.059-.227.154-.323a.984.984,0,0,0,.165-.294q.372-.86.732-1.724A9.57,9.57,0,0,0,16.631,3.8a10.587,10.587,0,0,0,.3-1.178,3.176,3.176,0,0,1,.221-.957.09.09,0,0,0,.007-.038L17.244.568c.026-.02.075-.041.078-.063a3.812,3.812,0,0,0,0-.4c-.007-.132.093-.1.163-.1A8.71,8.71,0,0,1,18.6,1.888a5.365,5.365,0,0,1,.27.779c.083.263.166.527.234.791s.029.577.1.852a6.422,6.422,0,0,1,.067,1.506,4.3,4.3,0,0,1-.074.655c-.026.218.064.451-.083.653.052.4-.212.75-.161,1.146l-.083.082c0,.041.015.087,0,.12-.083.187-.216.355-.17.579-.263.011-.09.257-.192.362a.287.287,0,0,0-.041.182.352.352,0,0,1-.1.286.829.829,0,0,0-.143.3c-.035.094-.053.195-.083.29s.083.237-.118.23c-.015.1-.023.2-.048.3-.01.038-.052.071-.082.1s-.053.015-.067.033c-.093.11.139.338-.139.381-.038.132-.071.267-.117.4-.035.1-.1.174-.083.291a.928.928,0,0,1-.26.66,1.44,1.44,0,0,0-.219.314c-.151.442-.427.821-.617,1.244a2.061,2.061,0,0,1-.4.727.187.187,0,0,0-.048.061c-.034.087.065.2-.076.275-.08.041-.129.14-.187.218s-.147.158-.135.222c.048.271-.184.415-.26.628a1.871,1.871,0,0,1-.331.591,12.18,12.18,0,0,0-1.163,1.911c-.195.332-.268.726-.449,1.07s-.4.693-.581,1.055a5.584,5.584,0,0,1-.421.6c-.093.139-.17.28-.251.425-.589,1.1-1.153,2.2-1.689,3.317-.1.215-.268.4-.366.618a7.152,7.152,0,0,0-.511,1.492,9.266,9.266,0,0,1-.437,1.316c-.2.539-.407,1.078-.568,1.628A6.363,6.363,0,0,0,8.3,31.5a11.58,11.58,0,0,1-.276,1.18.952.952,0,0,0-.037.146c-.03.313-.05.626-.084.939a1.871,1.871,0,0,1-.079.29v.082c.008.436-.114.862-.087,1.3s0,.89.01,1.336c.007.26.061.517.075.777a4.214,4.214,0,0,0,.015.766c.061.236.034.468.075.7a10.507,10.507,0,0,1,.157,1.27c.166.193.039.448.148.668.093.187.041.438.1.647a7.453,7.453,0,0,1,.244,1.116c.018.146.177.236.193.406s.146.325.127.513c0,.038-.01.1.011.114.219.193.207.483.309.724a3.152,3.152,0,0,1,.265.742c.019.123.094.237.108.359a3.714,3.714,0,0,0,.378.937c.048.116.144.207.151.346a.2.2,0,0,0,.108.151.544.544,0,0,1,.282.327c.1.223.112.5.393.6.029.328.4.47.434.794.005.045.053.12.083.121.154.008.148.158.222.233a3,3,0,0,1,.2.279c.12.152.255.3.37.455s.189.354.328.516a7.46,7.46,0,0,0,1.014.994.762.762,0,0,1,.2.195,2.145,2.145,0,0,0,.794.794c.069.034.116.113.176.167a4.516,4.516,0,0,0,.678.609c.125.075.189.238.3.339a3.637,3.637,0,0,0,.523.4,4.517,4.517,0,0,0,.546.249l.08.08c.123,0,.245.007.366,0a.414.414,0,0,0,.365-.361,1.055,1.055,0,0,0-.534-1.115,2.714,2.714,0,0,1-.572-.482,10.529,10.529,0,0,0-1.391-1.15,1.66,1.66,0,0,1-.481-.489,2.025,2.025,0,0,0-.329-.387,4.384,4.384,0,0,1-.78-1.1c-.18-.335-.419-.637-.625-.958a18.507,18.507,0,0,1-1.262-2.073c-.123-.26-.216-.532-.317-.8-.167-.445-.342-.888-.467-1.349-.068-.252-.17-.5-.223-.757A6.47,6.47,0,0,1,10.4,42.4c-.025-.244-.1-.494-.146-.745s-.056-.5-.1-.734a4.644,4.644,0,0,1-.064-.821c0-.131-.128-.231-.084-.372.025-.008.046-.018.069-.027l-.069-.053A3.431,3.431,0,0,0,10,38.8a6.927,6.927,0,0,1-.068-1.263l.08-.08c0-.2-.007-.407,0-.609.022-.436.053-.87.08-1.3.158-.214.033-.478.135-.713a3.929,3.929,0,0,0,.113-.685,4.832,4.832,0,0,1,.176-.7c.135-.343.177-.707.3-1.05s.184-.711.338-1.035a9,9,0,0,1,.8-1.662,8.707,8.707,0,0,0,.5-.964c.246-.427.5-.854.78-1.257a7.422,7.422,0,0,0,.414-.764,3.012,3.012,0,0,1,.555-.784,5.606,5.606,0,0,0,.515-.519c.324-.408.728-.745,1.056-1.146a5.9,5.9,0,0,1,.764-.809,8.492,8.492,0,0,0,.645-.584c.192-.2.361-.421.55-.624a4.97,4.97,0,0,1,1.242-.92,3.709,3.709,0,0,0,.478-.314c.523-.414,1.076-.786,1.624-1.167.226-.157.52-.276.632-.566.044-.12.146-.034.195-.075a6.945,6.945,0,0,1,.875-.536c.336-.2.683-.387,1-.609.12-.083.28-.088.37-.233.074-.12.237-.1.354-.161a2.332,2.332,0,0,1,.4-.219,4.857,4.857,0,0,0,.942-.467A11.047,11.047,0,0,1,27.1,16.3a7.047,7.047,0,0,1,.983-.66c.3-.241.652-.415.948-.67.148-.125.3-.259.447-.381a12.572,12.572,0,0,1,1.22-.978.463.463,0,0,0,.087-.084,3.426,3.426,0,0,1,.761-.607,3.553,3.553,0,0,0,.513-.426,6.62,6.62,0,0,0,.6-.6,3.562,3.562,0,0,0,.773-1.1,2.162,2.162,0,0,1,.378-.655l.407-.082c.03.195-.06.4.056.587.094.157-.049.366.1.527.033.035,0,.129,0,.2,0,.472.025.946-.007,1.417a6.214,6.214,0,0,1-.178,1.059c-.076.316-.2.619-.3.928-.008.025.01.06,0,.079-.316.5-.427,1.1-.735,1.6a4.89,4.89,0,0,1-.938,1.066c-.193-.016-.163.178-.251.26a6.938,6.938,0,0,1-1.059.971c-.208.124-.327.329-.524.471a11.755,11.755,0,0,0-1.039.93,7.884,7.884,0,0,1-1.277.935,4.876,4.876,0,0,1-.923.421,4.492,4.492,0,0,0-.884.508c-.429.265-.811.594-1.224.874s-.806.531-1.212.792c-.442.285-.859.607-1.291.9a7.766,7.766,0,0,0-1.08.922.834.834,0,0,1-.28.2,2.547,2.547,0,0,0-.761.517,26.041,26.041,0,0,0-1.99,1.924A4.857,4.857,0,0,0,17.4,29.5a.567.567,0,0,1-.132.188A7.015,7.015,0,0,0,16.1,31.227a16.543,16.543,0,0,0-1.067,1.99c-.208.455-.451.9-.619,1.364-.1.268-.17.551-.267.822s-.118.538-.222.8a2.853,2.853,0,0,0-.1.69l-.082.08a8.576,8.576,0,0,0-.08,1.137,1.2,1.2,0,0,0-.079.692c-.008.606-.005,1.21,0,1.815a.463.463,0,0,1-.084.329l.083.082" transform="translate(1.533)" fill="#ef4023"/>
      <path id="Path_4256" data-name="Path 4256" d="M85.24,40.744c-.027-.022-.076-.041-.078-.064-.01-.121,0-.244,0-.365V31.323c0-.421-.1-.837-.088-1.263a.929.929,0,0,0-.162-.532A1.971,1.971,0,0,0,84.363,29a2.661,2.661,0,0,0-1.37-.427,3.8,3.8,0,0,0-1.62.414,2.663,2.663,0,0,0-.813.671.629.629,0,0,0-.118.436c.007,1.351,0,2.7,0,4.052,0,1.282-.014,2.565.008,3.847a7.188,7.188,0,0,1-.108,1.179,1.353,1.353,0,0,1-.359.779c-.148.14-.289.285-.43.429a1.285,1.285,0,0,1-.779.384,5.009,5.009,0,0,0-.655.078,1.859,1.859,0,0,1-.619.067c-.193-.011-.383-.063-.577-.075s-.406.008-.607-.008a1.664,1.664,0,0,1-.342-.109V25.5l.079-.08c.045-.027.088-.079.131-.078.587.031,1.164-.147,1.754-.086a.306.306,0,0,1,.08,0c.124.045.246.094.372.142.125-.174.227.08.347.019.027.027.053.054.08.08.14-.044.241.084.372.082.154,0,.162.133.227.225.086.118.189.268.315.306.208.063.113.259.218.361a1.9,1.9,0,0,1,.244.366c.113-.109.208-.2.3-.293A4.891,4.891,0,0,1,82.33,25.4c.264-.1.539-.131.8-.229.08-.031.206.075.244-.08a2.442,2.442,0,0,0,.685-.012,3.622,3.622,0,0,1,1.025-.064c.177,0,.354.06.534.072s.38,0,.568.007a.888.888,0,0,1,.29.08c.229.1.447.229.679.317a.591.591,0,0,1,.4.309c.045.1.2.151.3.236s.193.189.287.285.206.106.21.276c0,.1.146.2.214.31s.116.222.173.332c.039.075.082.147.133.238a3.621,3.621,0,0,0,.671-.752,1.793,1.793,0,0,1,.441-.425,2.367,2.367,0,0,0,.393-.32,5.518,5.518,0,0,1,.856-.482,1.129,1.129,0,0,1,.626-.246c.129-.152.3-.053.453-.082l.082-.08a3.792,3.792,0,0,0,.889-.016,3.536,3.536,0,0,1,.7-.064,7.642,7.642,0,0,1,1.007.118c.018,0,.05.031.056.026.2-.21.4.012.588.033a1.726,1.726,0,0,1,.653.271,4.08,4.08,0,0,1,.813.577,3.759,3.759,0,0,1,.734.988c.118.248.223.5.325.757s.152.5.234.754a2.6,2.6,0,0,1,.088.652c.011.2.12.369.091.575a.812.812,0,0,0,.069.536c.035.061,0,.159,0,.24,0,2.743.02,5.487-.012,8.23a1.894,1.894,0,0,1-1.419,1.89,4.477,4.477,0,0,1-.863.178,3.7,3.7,0,0,1-.659.061c-.18-.008-.355-.061-.535-.074s-.381.008-.569-.008a1.532,1.532,0,0,1-.331-.117V30.864c0-.327-.049-.653-.08-.98a.357.357,0,0,0-.048-.1,2.024,2.024,0,0,0-1.43-1.129,3.885,3.885,0,0,0-1.105-.063,2.374,2.374,0,0,0-.653.18,3.189,3.189,0,0,0-1.157.742.772.772,0,0,0-.244.589c.007,1.69,0,3.379,0,5.067v3.487a2.863,2.863,0,0,1-.644,1.562,3.689,3.689,0,0,1-1.082.528,3.385,3.385,0,0,1-1.393.144,8.7,8.7,0,0,0-1.108-.065l-.08-.082" transform="translate(27.461 9.041)" fill="#fff"/>
      <path id="Path_4257" data-name="Path 4257" d="M42.194,34.636c0,1.826-.005,3.621,0,5.417a3.6,3.6,0,0,1-.287,1.221,2.226,2.226,0,0,1-.342.585.8.8,0,0,1-.513.327c-.181.031-.346.133-.542.169a4.482,4.482,0,0,0-.535.074,2.431,2.431,0,0,1-.821.068c-.18-.007-.357-.061-.535-.075s-.38.01-.569-.007a1.5,1.5,0,0,1-.328-.12V40.446c0-.6.117-1.189.088-1.79s-.007-1.189-.007-1.783V26.051c0-.607-.005-1.216,0-1.824.005-.4-.118-.78-.088-1.182s.005-.784.005-1.175V20.624c.1,0,.2-.015.3-.015q3.45,0,6.9,0a2.275,2.275,0,0,1,.494.086c.151.031.32-.068.46.071.027.027.1.012.157.01a3.748,3.748,0,0,1,1.065.182,5.52,5.52,0,0,1,1.048.3,7,7,0,0,1,1.01.4.856.856,0,0,1,.308.238c.068.1.248.123.35.211a3.786,3.786,0,0,0,.712.442,2.385,2.385,0,0,1,.643.592c.158.181.286.4.432.591a2.6,2.6,0,0,1,.319.636c.128.339.229.689.338,1.035a4.688,4.688,0,0,1,.157.988c.033.347.007.7.007,1.052,0,.2.014.407,0,.607a5.153,5.153,0,0,1-.214,1.167c-.078.241-.12.491-.192.732a4.856,4.856,0,0,1-.408.965,3.34,3.34,0,0,1-.32.4A9.366,9.366,0,0,1,50.4,32.4c-.181.172-.378.327-.568.489a5.894,5.894,0,0,1-.545.453,3.231,3.231,0,0,1-.73.392c-.438.148-.867.332-1.318.444a4.8,4.8,0,0,1-1.009.218,2.949,2.949,0,0,0-.526.1,1.037,1.037,0,0,1-.219.056c-.546,0-1.082.118-1.632.09s-1.082-.005-1.661-.005m.162-3.325a19.514,19.514,0,0,0,2.2-.067c.34-.059.688-.091,1.025-.178a4.943,4.943,0,0,0,.54-.163c.176-.067.289-.263.506-.248.173-.185.355-.362.517-.557a4.653,4.653,0,0,0,.331-.671,3.166,3.166,0,0,0,.4-1.575c.008-.244-.014-.487.005-.73a3.193,3.193,0,0,0-.165-1.067,2.8,2.8,0,0,0-1-1.446,4.462,4.462,0,0,0-1.31-.649,3.942,3.942,0,0,0-1.14-.181c-.54-.03-1.082,0-1.624-.012a.941.941,0,0,0-.441.114.131.131,0,0,0-.011.035v7.21a.66.66,0,0,0,.015.155c0,.015.042.02.065.03s.018.045.027.067l.054-.067" transform="translate(13.631 7.447)" fill="#fff"/>
      <path id="Path_4258" data-name="Path 4258" d="M99.5,25.1h1.1a7.847,7.847,0,0,1,.982-.086c.312.042.626.068.941.082s.651-.011.973.008c.178.011.35.075.535.084.169.01.332.127.5.146.191.02.313.173.487.2.154.023.17.212.35.229.132.014.253.165.376.257s.252.184.368.287a3.736,3.736,0,0,1,.344.344c.1.116.265.187.289.365a1.126,1.126,0,0,1,.466.692,2.046,2.046,0,0,1,.253.788,10.393,10.393,0,0,1,.32,1.2.936.936,0,0,1,0,.321c0,2.472,0,4.943,0,7.416a13,13,0,0,1,.076,1.3,4.12,4.12,0,0,1,.227.836c.1.274.246.521.362.8a1.269,1.269,0,0,1-.2.123,3.165,3.165,0,0,1-.712.236,7.008,7.008,0,0,1-1.514.167,3.92,3.92,0,0,1-.978-.188,1.444,1.444,0,0,1-.75-.6c-.094-.162-.28-.263-.29-.491,0-.113-.176-.133-.294-.049a11.344,11.344,0,0,1-1.74.994,9.34,9.34,0,0,1-1.2.421,1.563,1.563,0,0,1-.536.079c-.3-.012-.591.116-.9.086s-.6-.005-.892-.005l-.082-.082a3.015,3.015,0,0,1-1.722-.543c-.3-.05-.451-.369-.754-.44-.1-.023-.178-.157-.26-.248a5.373,5.373,0,0,1-.968-1.544,4.965,4.965,0,0,1-.3-1.058,10.12,10.12,0,0,1-.059-1.144,1,1,0,0,1,.033-.509c.1-.159-.054-.362.127-.478a2.106,2.106,0,0,1,.289-.934,1.575,1.575,0,0,1,.4-.565,1.324,1.324,0,0,0,.4-.479c.358-.178.545-.569.914-.734.034-.015.08-.016.1-.041a3.6,3.6,0,0,1,1.507-.775c.449-.169.931-.215,1.379-.392a1.348,1.348,0,0,1,.32-.012,2.02,2.02,0,0,1,.291-.072,3.59,3.59,0,0,0,.776-.108c.276-.048.555-.007.82-.067a9.767,9.767,0,0,1,1.714-.075.814.814,0,0,0,.082,0c.125-.016.236-.146.176-.248a.764.764,0,0,1-.074-.417,1.772,1.772,0,0,0-1.385-1.841,1.131,1.131,0,0,0-.493-.1c-.161.02-.313-.1-.493-.079-.2.025-.408-.012-.609.01a3.72,3.72,0,0,0-1.363.233A8.4,8.4,0,0,0,97,29.232a3.178,3.178,0,0,1-.5.267c-.131.035-.219.064-.309-.048-.114-.142-.24-.276-.342-.426a6.943,6.943,0,0,1-.581-1.5.99.99,0,0,1,.393-.927,6.351,6.351,0,0,1,1.387-.862,5.371,5.371,0,0,1,1.291-.414c.184-.034.358-.121.543-.154a2.555,2.555,0,0,1,.445,0c.061-.012.155.041.163-.08m3.168,8.189h-.082a1.91,1.91,0,0,1-.412.076,9.06,9.06,0,0,1-.939.09c-.042-.005-.088.048-.135.06-.148.037-.3.064-.447.1-.172.041-.343.083-.513.131a2.179,2.179,0,0,0-1.273.935,2.376,2.376,0,0,0-.346,1.978,2.111,2.111,0,0,0,.5.884,1.076,1.076,0,0,0,.481.3,1.958,1.958,0,0,0,.417.069c.152.018.3.059.453.078.494.067.975-.114,1.468-.079.185-.112.414-.083.6-.211.286-.2.576-.38.85-.6a.648.648,0,0,0,.274-.577c-.008-1.051,0-2.1,0-3.156.023-.01.045-.019.068-.027l-.068-.054Z" transform="translate(34.079 9.038)" fill="#fff"/>
      <path id="Path_4259" data-name="Path 4259" d="M73.045,30.77c-.027-.15-.065-.3-.079-.452a3.146,3.146,0,0,0-.011-.482,2.909,2.909,0,0,0-.214-.558,2.013,2.013,0,0,0-.814-.854,1.656,1.656,0,0,0-.5-.165,8.6,8.6,0,0,0-1.865-.074c-.169.059-.344.026-.493.082a1.423,1.423,0,0,1-.5.071c-.027.026-.053.053-.08.08a2.914,2.914,0,0,0-.4.117c-.513.231-1.021.474-1.53.712-.2.1-.4.2-.613.282a.29.29,0,0,1-.359-.068,2.769,2.769,0,0,1-.362-.5,9.76,9.76,0,0,1-.526-1.282.885.885,0,0,1,.167-.794,3,3,0,0,1,.894-.749c.5-.328,1.1-.429,1.615-.708.462-.035.87-.344,1.355-.256a1.423,1.423,0,0,0,.229,0c.035-.005.064-.05.1-.078a4.638,4.638,0,0,0,1.012-.015,4.5,4.5,0,0,1,1.027-.06c.3,0,.6.059.9.072a8.1,8.1,0,0,1,.892.012,4.671,4.671,0,0,1,1.062.274,2.121,2.121,0,0,0,.686.211.364.364,0,0,1,.289.188c.086.135.3.169.444.283a1.889,1.889,0,0,1,.436.422c.129.206.275.4.406.6a2.663,2.663,0,0,1,.173.334,8.4,8.4,0,0,1,.411.8,6.789,6.789,0,0,1,.215.84c.025.132.218.272.038.427a3.422,3.422,0,0,1,.117.415,3.732,3.732,0,0,1,.019.479q0,.243,0,.486v6.645a12.182,12.182,0,0,0,.1,1.262,3.388,3.388,0,0,0,.58,1.572.989.989,0,0,1-.211.147,2.138,2.138,0,0,0-.534.177c-.176.129-.4-.023-.551.15-.011.014-.052,0-.079,0a1.977,1.977,0,0,0-.539.067.643.643,0,0,1-.5-.044c-.178-.1-.422.056-.6-.1a1.961,1.961,0,0,1-.988-.455,1.348,1.348,0,0,1-.477-.649c-.069-.163-.151-.127-.233-.088a1.518,1.518,0,0,0-.419.257,7.459,7.459,0,0,1-.863.579,2.647,2.647,0,0,1-1.071.441,4.4,4.4,0,0,0-.583.159c-.255.082-.531.031-.775.094a3.7,3.7,0,0,1-.945.061.955.955,0,0,1-.542-.064c-.133-.078-.342.05-.487-.093a3.9,3.9,0,0,1-1.5-.49,2.047,2.047,0,0,1-.66-.464,6.439,6.439,0,0,1-.779-.854,3.405,3.405,0,0,1-.515-1.25,6.752,6.752,0,0,0-.074-.777,4.713,4.713,0,0,1-.067-1.266,5.653,5.653,0,0,1,.076-.737l.067-.026c-.022-.019-.045-.037-.067-.054a4.074,4.074,0,0,1,.1-.692,1.048,1.048,0,0,1,.351-.624,6.254,6.254,0,0,0,.466-.534,4.675,4.675,0,0,1,1.036-.826,9.268,9.268,0,0,1,1.557-.75c.46-.176.934-.29,1.4-.452.178-.063.38-.029.575-.078a1.578,1.578,0,0,1,.448-.1c.163.005.325,0,.487,0l.082-.082a3.712,3.712,0,0,0,.807-.01,10.293,10.293,0,0,1,1.711-.071l.082-.082m-.082,2.6.067-.027c-.022-.018-.045-.035-.067-.054-.189,0-.38-.01-.568,0a1.671,1.671,0,0,0-.509.042,2.44,2.44,0,0,1-.553.038c-.112.011-.221.061-.332.076-.128.016-.267-.033-.372.083-.351,0-.674.163-1.028.172a1.022,1.022,0,0,0-.5.161,5.869,5.869,0,0,0-.973.884c-.018.016-.042.041-.041.063,0,.325-.2.613-.169.945.019.215-.007.433.007.648s.063.436.074.655a.2.2,0,0,0,.121.188c.087.029.14.044.132.15a.173.173,0,0,0,.063.132c.225.166.418.4.734.377.074-.005.1.148.189.034.1-.131.148.053.237.059a15.152,15.152,0,0,0,1.954-.091,1.222,1.222,0,0,0,.449-.182c.377-.283.735-.591,1.082-.874Z" transform="translate(23.08 9.042)" fill="#fff"/>
      <path id="Path_4260" data-name="Path 4260" d="M110.921,20.707v.41q0,9.567.01,19.136a2.6,2.6,0,0,1-.489,1.3,2.261,2.261,0,0,1-1.376.8,4.658,4.658,0,0,0-.534.079,1.381,1.381,0,0,1-.538.068c-.193-.014-.384-.063-.577-.075s-.406.005-.609-.008a1.152,1.152,0,0,1-.275-.1V22.883a2.751,2.751,0,0,1,.093-.814,4.529,4.529,0,0,0,.206-.437c.035-.2.291-.17.3-.359.169,0,.174-.165.259-.248a.724.724,0,0,1,.3-.147,3.539,3.539,0,0,1,1.11-.267,10.771,10.771,0,0,1,2.12.1" transform="translate(38.504 7.447)" fill="#fff"/>
      <path id="Path_4261" data-name="Path 4261" d="M60.109,26.893c.222-.249.323-.55.625-.7.182-.091.293-.289.482-.4a4.047,4.047,0,0,1,1.409-.628c.15-.025.3-.052.455-.068.193-.02.384-.063.576-.078.358-.026.7.138,1.063.079.2.1.4.2.6.31.034.018.054.061.087.083.124.082.251.158.376.237-.079.191.219.237.162.419a.6.6,0,0,1,.159.58,6.783,6.783,0,0,1-.456,1.715,4.878,4.878,0,0,0-.192.568,1.878,1.878,0,0,1-.162.338c-.174.282-.321.317-.641.178a8.337,8.337,0,0,0-1-.422,2.944,2.944,0,0,0-1.34-.189,4.025,4.025,0,0,0-.752.241,6.211,6.211,0,0,0-.573.282,1.255,1.255,0,0,0-.659,1.02,15.376,15.376,0,0,0-.068,2.2c-.015.742,0,1.485,0,2.227v3.972a1.8,1.8,0,0,1-.5,1.209,1.825,1.825,0,0,1-.445.385,2.2,2.2,0,0,1-1.223.383c-.261,0-.511.1-.779.086a6.653,6.653,0,0,0-1.1-.094.963.963,0,0,1-.338-.108A8.191,8.191,0,0,1,55.89,39.4a10.039,10.039,0,0,0,.064-1.427c.011-.486,0-.973,0-1.459V27.966c0-.37-.121-.726-.09-1.1s.005-.728.005-1.093v-.242c.005-.108.072-.192.172-.177a8.659,8.659,0,0,0,.941-.088c.244.01.487.007.731,0a5.171,5.171,0,0,1,.694.1,1.527,1.527,0,0,1,.671.321,2.259,2.259,0,0,0,.512.339.186.186,0,0,1,.094.12c.05.309.329.476.422.756" transform="translate(20.186 9.041)" fill="#fff"/>
      <path id="Path_4262" data-name="Path 4262" d="M.413,12.372C.441,11.79.274,11.22.331,10.637.192,10.268.24,9.865.1,9.488a3.444,3.444,0,0,1-.094-.847c.031-.079-.076-.2.082-.242A1.028,1.028,0,0,1,.5,8.684c.427.456.874.9,1.282,1.371a4.92,4.92,0,0,1,.588.964,7.087,7.087,0,0,1,.588,1.333A3.37,3.37,0,0,1,3.1,12.9c.01.125.06.246.074.37a3.183,3.183,0,0,0,.01.362c.025.106.124.193.15.3a1.933,1.933,0,0,1,.019.357c0,.02.035.041.056.057.1.079.143.158.02.257a1.075,1.075,0,0,0,.074.121,1.023,1.023,0,0,1,.08.082c-.007.076-.016.152-.027.23,0,.029-.027.076-.019.082.165.109.116.278.131.432.035.351.034.712.1,1.051a11.5,11.5,0,0,1,.06,1.66c.018.415,0,.832,0,1.248l-.082.082v.6c.016.516-.14,1.022-.082,1.54-.146.316-.012.663-.094.972a5.147,5.147,0,0,0-.07,1.02l-.082.08v1.055l-.067.026c.022.019.045.037.067.054v.324l-.082.082c0,.35-.014.7.005,1.051.022.372-.123.723-.091,1.1s.005.726.005,1.091v1.131c0,.528.136,1.05.086,1.582-.014.129.121.231.078.37l-.082.061.082.1a11.922,11.922,0,0,0,.1,1.289c.031.178.031.361.076.53s.033.338.082.487a2.723,2.723,0,0,1,.071.775l.082.08a7.3,7.3,0,0,0,.2.889c.031.188.084.372.123.557.011.052,0,.114.022.152a1.431,1.431,0,0,1,.142.835v.08c.029.139-.075.214-.162.274a.676.676,0,0,1-.245.052H3.664c-.214-.113-.231-.344-.327-.53a12.41,12.41,0,0,1-.391-1.255,3.777,3.777,0,0,0-.192-.445,9.323,9.323,0,0,1-.63-1.483c-.246-.668-.453-1.351-.677-2.027-.1-.309-.21-.615-.3-.928s-.177-.63-.257-.948C.761,29.709.669,29.2.564,28.69c-.037-.18-.044-.358-.075-.534a1.643,1.643,0,0,1-.076-.494c.011-.129-.125-.231-.082-.372L.4,27.264.331,27.21c-.027-.163-.065-.325-.078-.489A2.333,2.333,0,0,0,.24,26.2a1.71,1.71,0,0,1-.071-.534l.068-.026-.068-.054V23.038C.158,22.5.3,21.962.256,21.417a.855.855,0,0,1,.075-.289v-.08c0-.135,0-.27,0-.4-.02-.678.142-1.349.082-2.029A12.382,12.382,0,0,0,.5,16.43l.066-.03-.067-.054V12.858C.482,12.8.534,12.7.413,12.7v-.242l.067-.027-.067-.054" transform="translate(0 3.036)" fill="#ef4023"/>
      <path id="Path_4263" data-name="Path 4263" d="M54.647,25.521V38.6a2.761,2.761,0,0,1-.252,1.07,1.607,1.607,0,0,1-.61.668,2.892,2.892,0,0,1-1.323.438,3.962,3.962,0,0,1-.858.05,3.074,3.074,0,0,0-.577-.065c-.065,0-.131.039-.2.039a.59.59,0,0,1-.184-.042,1.06,1.06,0,0,1-.28-.1.33.33,0,0,1-.1-.2,1.618,1.618,0,0,1,0-.282V27.627c0-.108-.042-.245.008-.319.125-.181.02-.389.108-.565a4.19,4.19,0,0,1,.3-.565,1.247,1.247,0,0,1,.915-.66c.044,0,.084-.071.129-.075.23-.019.407-.216.663-.172.219.038.423-.112.656-.082a5.345,5.345,0,0,1,.727.019,6.368,6.368,0,0,0,.776.083c.012,0,.019.044.029.067.012.061-.039.155.082.162" transform="translate(18.159 9.102)" fill="#fff"/>
      <path id="Path_4277" data-name="Path 4277" d="M52.536,20.615a1.612,1.612,0,0,1,1.144.365,2.155,2.155,0,0,1,.919,1.233.8.8,0,0,1,.046.222c.005.135-.005.27,0,.4a1.927,1.927,0,0,1-.543,1.352,2.55,2.55,0,0,1-1.262.762.982.982,0,0,1-.589.02,3.215,3.215,0,0,1-.713-.231,3.105,3.105,0,0,1-.621-.447,2.2,2.2,0,0,1-.576-1.051,1.6,1.6,0,0,1-.082-.653,2.217,2.217,0,0,1,.245-.867,2.48,2.48,0,0,1,.656-.713,2.14,2.14,0,0,1,1.374-.4" transform="translate(18.161 7.445)" fill="#fff"/>
      <path id="Path_4294" data-name="Path 4294" d="M26.373,7.449l-.406.082c-.038-.184.146-.244.233-.309.071-.052.191.086.173.227" transform="translate(9.383 2.606)" fill="#f6947e"/>
      <path id="Path_4295" data-name="Path 4295" d="M29.692,24.508c-.023-.01-.061-.014-.067-.029-.067-.211-.065-.211-.259-.215.067-.172.2-.044.325-.082Z" transform="translate(10.614 8.737)" fill="#f6947e"/>
      <path id="Path_4297" data-name="Path 4297" d="M53.5,25.475c-.121-.007-.069-.1-.082-.162.059.011.146-.037.158.061,0,.03-.049.067-.076.1" transform="translate(19.307 9.148)" fill="#fff"/>
      <path id="Path_4299" data-name="Path 4299" d="M67.768,25.075c-.031.027-.061.072-.1.078a1.421,1.421,0,0,1-.229,0c.033-.027.061-.072.1-.078a1.424,1.424,0,0,1,.229,0" transform="translate(24.376 9.062)" fill="#fff"/>
      <path id="Path_4307" data-name="Path 4307" d="M2.691,30.017h.244c-.082.112-.162.112-.244,0" transform="translate(0.973 10.849)" fill="#f5a491"/>
      <path id="Path_4308" data-name="Path 4308" d="M81.473,25.076c-.038.157-.163.05-.244.082.038-.157.163-.05.244-.082" transform="translate(29.358 9.061)" fill="#fff"/>
      <path id="Path_4309" data-name="Path 4309" d="M2.534,25.653l-.082-.1.082-.061v.162" transform="translate(0.886 9.213)" fill="#f6947e"/>
      <path id="Path_4310" data-name="Path 4310" d="M25.689,29.541c-.012.061.041.155-.082.162.012-.061-.039-.155.082-.162" transform="translate(9.255 10.677)" fill="#f5a491"/>
      <path id="Path_4311" data-name="Path 4311" d="M98.161,25.074c-.007.121-.1.069-.162.082.007-.123.1-.069.162-.082" transform="translate(35.42 9.062)" fill="#fff"/>
      <path id="Path_4313" data-name="Path 4313" d="M20.975,34.841l-.082.082.082-.082" transform="translate(7.551 12.593)" fill="#f5a491"/>
      <path id="Path_4315" data-name="Path 4315" d="M97.283,36.807l.082.082-.082-.082" transform="translate(35.161 13.303)" fill="#fff"/>
      <path id="Path_4316" data-name="Path 4316" d="M14.985,6.157l.082-.082-.082.082" transform="translate(5.416 2.196)" fill="#f5a491"/>
      <path id="Path_4317" data-name="Path 4317" d="M63.922,32.4l.067.054-.067.027Z" transform="translate(23.103 11.71)" fill="#fff"/>
      <path id="Path_4319" data-name="Path 4319" d="M11.128,30.158l-.083-.082.083.082" transform="translate(3.992 10.87)" fill="#f5a491"/>
      <path id="Path_4321" data-name="Path 4321" d="M3.168,29.8v-.082c.022.019.045.037.067.054l-.067.027" transform="translate(1.145 10.741)" fill="#f5a491"/>
      <path id="Path_4322" data-name="Path 4322" d="M68.718,29.362l-.082.082.082-.082" transform="translate(24.807 10.612)" fill="#fff"/>
      <path id="Path_4323" data-name="Path 4323" d="M70.628,29.243l-.082.082.082-.082" transform="translate(25.497 10.569)" fill="#fff"/>
      <path id="Path_4324" data-name="Path 4324" d="M8.48,29.124l.067.054-.067.027Z" transform="translate(3.065 10.526)" fill="#f5a491"/>
      <path id="Path_4326" data-name="Path 4326" d="M2.832,27.955l-.082-.082.082.082" transform="translate(0.994 10.074)" fill="#f5a491"/>
      <path id="Path_4327" data-name="Path 4327" d="M8.5,27.516l-.08.084.082-.082" transform="translate(3.043 9.945)" fill="#f6947e"/>
      <path id="Path_4328" data-name="Path 4328" d="M67.264,27.538l.082-.082-.082.082" transform="translate(24.311 9.924)" fill="#fff"/>
      <path id="Path_4329" data-name="Path 4329" d="M11.225,27.181l.082-.082-.082.082" transform="translate(4.057 9.794)" fill="#f5a491"/>
      <path id="Path_4330" data-name="Path 4330" d="M78.088,25.394l-.082-.082.082.082" transform="translate(28.194 9.149)" fill="#fff"/>
      <path id="Path_4331" data-name="Path 4331" d="M76.059,25.312l-.082.082.082-.082" transform="translate(27.46 9.149)" fill="#fff"/>
      <path id="Path_4332" data-name="Path 4332" d="M88.054,25.074l-.082.082.082-.082" transform="translate(31.796 9.063)" fill="#fff"/>
      <path id="Path_4334" data-name="Path 4334" d="M6.868,25.1v-.082l.067.054-.067.027" transform="translate(2.482 9.041)" fill="#f5a491"/>
      <path id="Path_4335" data-name="Path 4335" d="M25.608,23.883h.082c-.019.022-.037.045-.054.067-.01-.022-.018-.045-.027-.067" transform="translate(9.255 8.632)" fill="#f6947e"/>
      <path id="Path_4336" data-name="Path 4336" d="M25.309,23.964l.082-.082-.082.082" transform="translate(9.147 8.632)" fill="#f6947e"/>
      <path id="Path_4337" data-name="Path 4337" d="M24.653,23.883l.082.082-.082-.082" transform="translate(8.91 8.632)" fill="#f6947e"/>
      <path id="Path_4338" data-name="Path 4338" d="M25.846,23.9l.082-.082-.082.082" transform="translate(9.341 8.61)" fill="#f5a491"/>
      <path id="Path_4339" data-name="Path 4339" d="M26.4,20.868l-.082-.082.082.082" transform="translate(9.514 7.513)" fill="#f5a491"/>
      <path id="Path_4340" data-name="Path 4340" d="M2.452,20.868l.082-.082-.082.082" transform="translate(0.886 7.513)" fill="#f5a491"/>
      <path id="Path_4343" data-name="Path 4343" d="M26.167,20.8h-.082c.019-.022.037-.045.054-.067.01.022.018.045.027.067" transform="translate(9.428 7.495)" fill="#f6947e"/>
      <path id="Path_4345" data-name="Path 4345" d="M20.855,20.726l-.082.082.082-.082" transform="translate(7.508 7.491)" fill="#f5a491"/>
      <path id="Path_4346" data-name="Path 4346" d="M21.333,20.667l-.082.082.082-.082" transform="translate(7.681 7.47)" fill="#f5a491"/>
      <path id="Path_4347" data-name="Path 4347" d="M24.913,20.607l-.054.067c-.01-.022-.018-.045-.027-.067Z" transform="translate(8.975 7.448)" fill="#f6947e"/>
      <path id="Path_4349" data-name="Path 4349" d="M2.53,20.57l-.067-.054.067-.027v.082" transform="translate(0.89 7.405)" fill="#f5a491"/>
      <path id="Path_4350" data-name="Path 4350" d="M16.5,48.182v.082l-.067-.054.067-.027" transform="translate(5.938 17.414)" fill="#f9cabc"/>
      <path id="Path_4351" data-name="Path 4351" d="M2.512,19.736l.082-.082-.082.082" transform="translate(0.908 7.104)" fill="#f5a491"/>
      <path id="Path_4352" data-name="Path 4352" d="M2.75,16.639l.082-.082-.082.082" transform="translate(0.994 5.984)" fill="#f5a491"/>
      <path id="Path_4356" data-name="Path 4356" d="M2.653,13.125l-.082-.082.082.082" transform="translate(0.929 4.714)" fill="#f5a491"/>
      <path id="Path_4360" data-name="Path 4360" d="M82.781,36.568l.08.082-.08-.082" transform="translate(29.919 13.217)" fill="#fff"/>
      <path id="Path_4362" data-name="Path 4362" d="M13.515,39.806l-.082-.082.082.082" transform="translate(4.855 14.358)" fill="#f5a491"/>
      <path id="Path_4364" data-name="Path 4364" d="M41.065,28.469h.082c-.019.022-.037.045-.054.067-.01-.022-.018-.045-.027-.067" transform="translate(14.842 10.29)" fill="#fff"/>
      <path id="Path_4366" data-name="Path 4366" d="M101.1,31.171v-.082l.067.054-.067.027" transform="translate(36.541 11.237)" fill="#fff"/>
      <path id="Path_4367" data-name="Path 4367" d="M100.468,31.089l-.054.067c-.01-.022-.018-.045-.027-.067h.082" transform="translate(36.282 11.237)" fill="#fff"/>
      <path id="Path_4369" data-name="Path 4369" d="M70.546,31.171v-.082c.022.019.045.037.067.054l-.067.027" transform="translate(25.497 11.237)" fill="#fff"/>
    </g>
  </g>
</svg>
